<svg width="629" height="612" viewBox="0 0 629 612" fill="none" xmlns="http://www.w3.org/2000/svg">
<path d="M2.5 133.5H524.5V536.5H2.5V133.5Z" fill="#5E6494" stroke="#4F4F4F" stroke-width="5"/>
<path d="M44.5 228.5H271.583H485.5V498.5H44.5V228.5Z" fill="white" stroke="#333333" stroke-width="5"/>
<line x1="1.0008" y1="197.5" x2="526.566" y2="197.78" stroke="#C4C4C4" stroke-width="3"/>
<line x1="526.134" y1="197.844" x2="560.106" y2="187.652" stroke="#C4C4C4" stroke-width="3"/>
<path d="M553.5 159C553.5 165.947 549.166 170.5 545 170.5C540.834 170.5 536.5 165.947 536.5 159C536.5 152.053 540.834 147.5 545 147.5C549.166 147.5 553.5 152.053 553.5 159Z" stroke="#4F4F4F" stroke-width="5"/>
<line x1="522.247" y1="134.616" x2="560.247" y2="122.616" stroke="#4F4F4F" stroke-width="5"/>
<line x1="1.17129" y1="133.641" x2="38.1713" y2="120.641" stroke="#4F4F4F" stroke-width="5"/>
<line x1="561.5" y1="118" x2="561.5" y2="521" stroke="#4F4F4F" stroke-width="5"/>
<line x1="44" y1="296" x2="481" y2="296" stroke="black" stroke-width="2"/>
<line x1="45" y1="364" x2="482" y2="364" stroke="black" stroke-width="2"/>
<line x1="46" y1="429" x2="483" y2="429" stroke="black" stroke-width="2"/>
<line x1="101" y1="231" x2="101" y2="495" stroke="black" stroke-width="2"/>
<line x1="167" y1="231" x2="167" y2="495" stroke="black" stroke-width="2"/>
<line x1="233" y1="231" x2="233" y2="495" stroke="black" stroke-width="2"/>
<line x1="299" y1="231" x2="299" y2="495" stroke="black" stroke-width="2"/>
<line x1="365" y1="231" x2="365" y2="495" stroke="black" stroke-width="2"/>
<line x1="432" y1="230.993" x2="433" y2="364.993" stroke="black" stroke-width="2"/>
<circle cx="486" cy="450" r="103" fill="#FFA4A4"/>
<circle cx="485" cy="450" r="85" fill="#FFC0C0"/>
<ellipse cx="489" cy="453.5" rx="6" ry="5.5" fill="black"/>
<line x1="488.5" y1="456" x2="488.5" y2="373" stroke="black" stroke-width="3"/>
<line x1="492.996" y1="456.589" x2="428.449" y2="431.11" stroke="black" stroke-width="3"/>
<path d="M63 162C63 168.245 58.1314 173 52.5 173C46.8686 173 42 168.245 42 162C42 155.755 46.8686 151 52.5 151C58.1314 151 63 155.755 63 162Z" stroke="#2C2C2D" stroke-width="12"/>
<path d="M123 162C123 168.609 118.237 173 113.5 173C108.763 173 104 168.609 104 162C104 155.391 108.763 151 113.5 151C118.237 151 123 155.391 123 162Z" stroke="#2C2C2D" stroke-width="12"/>
<path d="M183 162C183 168.245 178.131 173 172.5 173C166.869 173 162 168.245 162 162C162 155.755 166.869 151 172.5 151C178.131 151 183 155.755 183 162Z" stroke="#2C2C2D" stroke-width="12"/>
<path d="M245 162C245 167.912 240.016 173 233.5 173C226.984 173 222 167.912 222 162C222 156.088 226.984 151 233.5 151C240.016 151 245 156.088 245 162Z" stroke="#2C2C2D" stroke-width="12"/>
<path d="M305 162C305 167.757 299.955 173 293 173C286.045 173 281 167.757 281 162C281 156.243 286.045 151 293 151C299.955 151 305 156.243 305 162Z" stroke="#2C2C2D" stroke-width="12"/>
<path d="M364 162C364 167.912 359.016 173 352.5 173C345.984 173 341 167.912 341 162C341 156.088 345.984 151 352.5 151C359.016 151 364 156.088 364 162Z" stroke="#2C2C2D" stroke-width="12"/>
<circle cx="414" cy="162" r="11" stroke="#2C2C2D" stroke-width="12"/>
<circle cx="475" cy="162" r="11" stroke="#2C2C2D" stroke-width="12"/>
<line x1="36.9952" y1="121.5" x2="558.995" y2="120.5" stroke="#4F4F4F" stroke-width="5"/>
<path d="M48 155.5L52 166H54.5L55.5 161V150V131V118.5L64.5 110.5H79L86 119.5V131H93V118.5L81 103.5H63.5L48 116.5V131V155.5Z" fill="#C4C4C4"/>
<path d="M108 155.5L112 166H114.5L115.5 161V150V131V118.5L124.5 110.5H139L146 119.5V131H153V118.5L141 103.5H123.5L108 116.5V131V155.5Z" fill="#C4C4C4"/>
<path d="M168 155.5L172 166H174.5L175.5 161V150V131V118.5L184.5 110.5H199L206 119.5V131H213V118.5L201 103.5H183.5L168 116.5V131V155.5Z" fill="#C4C4C4"/>
<path d="M228 155.5L232 166H234.5L235.5 161V150V131V118.5L244.5 110.5H259L266 119.5V131H273V118.5L261 103.5H243.5L228 116.5V131V155.5Z" fill="#C4C4C4"/>
<path d="M288 155.5L292 166H294.5L295.5 161V150V131V118.5L304.5 110.5H319L326 119.5V131H333V118.5L321 103.5H303.5L288 116.5V131V155.5Z" fill="#C4C4C4"/>
<path d="M348 155.5L352 166H354.5L355.5 161V150V131V118.5L364.5 110.5H379L386 119.5V131H393V118.5L381 103.5H363.5L348 116.5V131V155.5Z" fill="#C4C4C4"/>
<path d="M409 155.5L413 166H415.5L416.5 161V150V131V118.5L425.5 110.5H440L447 119.5V131H454V118.5L442 103.5H424.5L409 116.5V131V155.5Z" fill="#C4C4C4"/>
<path d="M470 155.5L474 166H476.5L477.5 161V150V131V118.5L486.5 110.5H501L508 119.5V131H515V118.5L503 103.5H485.5L470 116.5V131V155.5Z" fill="#C4C4C4"/>
<line x1="531.5" y1="196.997" x2="532.5" y2="357.997" stroke="#BDBDBD"/>
<line x1="536.5" y1="193.997" x2="537.512" y2="359.997" stroke="#BDBDBD"/>
<line x1="541.5" y1="193.997" x2="542.537" y2="363.997" stroke="#BDBDBD"/>
<line x1="546.5" y1="192.997" x2="547.567" y2="367.997" stroke="#BDBDBD"/>
<line x1="551.5" y1="189.997" x2="552.517" y2="370.997" stroke="#BDBDBD"/>
<line x1="556.5" y1="187" x2="556.5" y2="375" stroke="#BDBDBD"/>
<rect x="532" y="226" width="18" height="45" fill="#F25A5A"/>
<rect x="547" y="275" width="19" height="45" fill="#AEF1B5"/>
<rect x="557" y="203" width="17" height="45" fill="#ECF1AE"/>
<rect x="307" y="237" width="51" height="51" rx="10" fill="#9AD5EE"/>
<rect x="174" y="370" width="51" height="51" rx="10" fill="#EEC29A"/>
<path d="M246 463.5C246 452.178 255.178 443 266.5 443C277.822 443 287 452.178 287 463.5C287 474.822 277.822 484 266.5 484C255.178 484 246 474.822 246 463.5Z" fill="#FE7D7D"/>
<rect x="57" y="311" width="165" height="32" rx="16" fill="#353333"/>
<path d="M263.056 466.562C264.033 466.562 266.722 467.247 268.25 466.904L268.556 466.562L270.694 462.794L271 462.11L270.694 461.082L270.083 460.055L268.861 458.685L267.639 458L267.333 459.027L267.028 461.082L265.806 460.397H264.889L263.972 460.74H262.139L260.306 459.37L260 464.507C261.12 465.534 262.078 466.562 263.056 466.562Z" fill="#F1CBA8"/>
<g filter="url(#filter0_d)">
<path d="M302.943 584.523L307.343 581.795L309.857 576H313L312.686 581.795L312.057 591H302.314L302 587.591L302.943 584.523Z" fill="black"/>
<path d="M302.943 584.523L307.343 581.795L309.857 576H313L312.686 581.795L312.057 591H302.314L302 587.591L302.943 584.523Z" stroke="black"/>
</g>
<g filter="url(#filter1_d)">
<path d="M358.029 583.954L362.829 581.409L365.571 576H369L368.657 581.409L367.971 590H357.343L357 586.818L358.029 583.954Z" fill="black"/>
<path d="M358.029 583.954L362.829 581.409L365.571 576H369L368.657 581.409L367.971 590H357.343L357 586.818L358.029 583.954Z" stroke="black"/>
</g>
<path d="M307.15 582L304 544.443L304.945 527.677L310.615 526L315.655 542.766L315.025 550.814L313.765 564.563L312.82 576.299C312.295 576.188 310.993 576.031 309.985 576.299C308.977 576.568 307.675 580.212 307.15 582Z" fill="#F1CBA8"/>
<path d="M363.535 578.311L336.76 541.425L348.415 540.419L364.795 569.593L367 574.958H364.795L363.535 578.311Z" fill="#F1CBA8"/>
<path d="M314.944 510.667C321.75 501.824 333.57 489 333.57 489C333.57 489 357.669 479.333 359.458 481C361.247 482.667 366.986 485.517 368.929 490.333C371.128 495.785 369.232 499.667 367.666 505.333C364.888 515.389 352.512 527.333 352.512 527.333L351.565 540L313.997 542.333L309.261 528.333L307.998 540L302 545C302 545 300.333 536.01 302 530.667C302.636 528.629 303.257 527.577 304.21 525.667C307.426 519.221 310.55 516.375 314.944 510.667Z" fill="#B45C5C"/>
<path d="M288 465.032C288 465.032 273.769 462.312 272.385 461.656C271 461 267 466.5 268 468C269 469.5 277.867 476.509 281.557 478.873C285.248 481.236 289.77 479.965 294.842 478.873C304.104 476.877 314.769 465.032 314.769 465.032L333.114 489L360 481.236L355.255 468.408L345.766 438.701L333.114 436L314.769 441.401C312.871 443.427 309.982 449.131 305.913 453.216C299.999 459.154 288 465.032 288 465.032Z" fill="#7AC9AC"/>
<path d="M308.181 440.837C312.02 442.86 317.109 443.071 319.21 442.177L323.937 445.192C323.937 445.192 324.878 448.872 325.513 451.222C326.79 455.952 326.594 459 328.979 463.281L329.065 463.435C331.902 468.529 334.057 472.398 339.693 474C342.889 474.908 344.91 474.45 348.202 474C352.157 473.459 354.396 472.764 357.971 470.985C360.897 469.529 362.705 468.715 364.903 466.296C367.195 463.773 368.62 461.978 369 458.591C369.631 452.956 365.553 450.097 361.437 446.197C356.587 441.601 352.472 440.471 345.996 438.828C341.672 437.73 334.651 437.488 334.651 437.488L334.336 432.128C334.336 432.128 334.034 424.475 332.761 419.734C331.487 414.993 330.006 412.609 325.513 409.015C321.019 405.42 320.124 406.246 316.374 406C311.681 405.692 308.905 406.88 304.714 409.015C300.946 410.934 298.4 412.099 296.206 415.714C294.32 418.822 290.468 423.897 294 424.759C294.837 424.963 295.367 424.565 296.206 424.759C298.4 425.265 298.517 426.098 299.987 429.113C301.458 432.128 303.239 438.234 308.181 440.837Z" fill="black"/>
<path d="M334.347 432L319 442L323.898 445L335 437L334.347 432Z" fill="#FDE8B3"/>
<line y1="-1.5" x2="15.9986" y2="-1.5" transform="matrix(0.99207 -0.12569 0.112932 0.993603 260.317 460.964)" stroke="#683333" stroke-width="3"/>
<path d="M553.401 394.367L556.24 404.774V405.517L575.408 411.093L573.278 401.057L568.309 400.685V398.455L571.504 394.367C571.504 394.367 575.476 395.783 577.183 394.367C577.492 394.11 577.653 393.945 577.893 393.623C578.278 393.107 578.42 392.753 578.603 392.136C578.932 391.023 579.23 390.14 578.603 389.163C578.222 388.57 577.183 388.048 577.183 388.048L576.473 386.561L575.053 386.189V383.216L574.343 382.101L576.118 380.242L572.923 378.384V375.41L566.534 369.835L559.79 375.41V384.132L555.175 382.844L552.691 384.703L554.11 389.906L553.401 394.367Z" fill="#C27706"/>
<path d="M543.107 387.304C546.114 392.629 549.175 401.151 554.465 398.083C555.593 397.429 556.261 396.96 556.95 395.853C558.787 392.901 552.957 390.437 554.465 387.304C555.162 385.858 555.741 384.693 557.305 384.331C558.895 383.963 561.487 389.156 561.21 385.818L560.5 377.269C560.223 373.93 570.058 374.185 568.664 370.207C568.322 369.232 567.944 368.736 567.244 367.977C564.332 364.816 560.416 366.962 556.24 367.977C549.368 369.647 543.85 372.022 541.687 378.756C541.235 380.163 540.886 380.997 540.977 382.472C541.104 384.531 542.093 385.509 543.107 387.304Z" fill="#0D0C0C" stroke="black"/>
<path d="M538.847 483.2V474.28L544.527 470.563L546.301 478.74L544.527 483.2L540.622 488.404H535.653V485.43L538.847 483.2Z" fill="#C27706"/>
<path d="M591.736 386.933L597.061 390.278H605.935L604.16 379.871L600.255 376.154L597.061 379.871H591.736V386.933Z" fill="#C27706"/>
<path d="M546.809 471.075C545.532 474.933 546.809 481.482 546.809 481.482H587.629C587.629 481.482 588.787 478.563 589.404 476.65C592.895 465.836 592.209 459.017 591.889 447.658C591.563 436.076 587.629 418.295 587.629 418.295C587.629 418.295 600.234 424.325 608.927 424.985C611.83 425.205 615.082 427.59 616.381 424.985C617.029 423.686 616.43 422.719 616.381 421.268C615.963 408.712 606.087 390.79 606.087 390.79H596.503L600.053 407.887L585.5 399.339L573.786 401.197L575.916 411.604C575.916 411.604 568.813 409.219 564.202 407.887C559.797 406.616 552.843 404.914 552.843 404.914V407.887C552.843 407.887 542.005 411.781 536.515 416.436C531.094 421.033 525.542 428.605 524.695 430.323C523.847 432.042 515.243 441.573 514.153 450.26C513.809 452.996 514.153 457.322 514.153 457.322L538.645 474.791L546.809 468.473L531.191 447.658C531.191 447.658 538.989 444.237 541.485 439.853C543.257 436.74 543.614 430.932 543.614 430.932L546.809 453.605C548.057 462.46 550.97 461.135 549.649 465.871C549.027 468.101 547.536 468.877 546.809 471.075Z" fill="#FFF8B5"/>
<path d="M520.034 606.229L522.519 603.628H532.813L537.072 610.69H520.034V606.229Z" fill="#7A7676"/>
<path d="M568.664 606.366L571.563 603.628H583.572L588.542 611.061H568.664V606.366Z" fill="#7A7676"/>
<path d="M564.404 506.617L532.458 602.884H521.454L547.721 482.085H583.927L580.733 602.884L570.439 605.114L564.404 506.617Z" fill="#6B2828"/>
<path d="M585.702 378.756H591.381H596.706V383.216L605.58 391.393L607.709 389.163L598.126 377.64L600.965 374.667L613.744 366.932C613.744 366.932 625.816 376.807 628.297 371.693C629.501 369.212 628.924 367.317 628.297 364.631C626.633 357.499 619.975 347.512 619.975 347.512C619.975 347.512 616.979 342.328 613.744 343.073C612.149 343.441 611.063 343.916 610.194 345.304C607.768 349.177 608.323 357.499 608.323 357.499C608.323 357.499 601.214 361.8 596.706 364.631C592.382 367.347 585.702 371.693 585.702 371.693V378.756Z" fill="#F55656"/>
<path d="M272.037 137.17L259.057 136.131L256.98 137.689C256.98 137.689 254.384 147.553 252.826 149.63C251.269 151.707 247.115 154.822 246.596 156.899C246.077 158.976 246.077 161.053 247.115 163.649C248.154 166.245 252.307 166.764 254.903 166.245C257.499 165.725 262.691 162.091 265.287 159.495C267.883 156.899 267.883 151.707 268.921 149.63C269.96 147.553 271.517 143.4 272.037 141.323C272.556 139.246 272.037 137.17 272.037 137.17Z" fill="#867165"/>
<path d="M276.19 144.957L278.267 137.17L294.362 135.612C294.362 135.612 294.881 137.689 294.881 139.246C294.881 140.804 294.362 144.438 293.843 145.996C293.324 147.553 291.766 154.303 290.728 156.899C289.689 159.495 286.574 163.649 285.016 165.206C283.459 166.764 277.748 166.764 276.19 166.245C274.633 165.725 272.037 165.206 271.517 162.61C270.998 160.014 270.998 157.937 271.517 155.861C272.037 153.784 276.19 144.957 276.19 144.957Z" fill="#867165"/>
<path d="M313 89.8058C311.962 86.1714 307.342 78.5004 307.342 78.5004L270.479 88.8844C270.479 88.8844 262.058 95.7674 260.5 96.8058C258.942 97.8441 256.538 99.2683 255.5 100.826C254.462 102.383 254.981 112.575 255.5 118.806C256.019 125.036 255.422 139.766 255.422 139.766C255.422 139.766 259.057 141.323 261.133 141.323C263.21 141.323 264.768 141.323 268.402 140.285C272.037 139.246 275.5 137.806 275.5 137.806L277.5 138.727C277.5 138.727 279.305 139.766 282.42 139.766C285.536 139.766 290.347 139.649 292.804 138.727C295.261 137.806 296 135.806 296 135.806L294 126.306L292 112.806C292 112.806 298.904 109.844 301.5 108.806C304.096 107.767 309.923 104.979 312 100.826C314.077 96.6723 314.038 93.4401 313 89.8058Z" fill="#293458"/>
<path d="M258.018 43.7143C258.018 45.7911 259.057 51.5023 259.057 51.5023L265.287 54.6174L275.152 84.7308H302.15C303.708 84.7308 305.784 84.2116 307.342 82.654C308.899 81.0964 309.938 79.5388 309.938 79.5388L308.38 72.2701L303.708 56.175L306.303 45.7911C306.303 45.7911 305.784 40.08 305.265 38.5224C304.746 36.9648 304.227 34.3688 302.15 32.8112C300.073 31.2536 288.651 31.2536 288.651 31.2536L267.883 34.3688C267.883 34.3688 260.614 35.9264 259.576 38.0032C258.537 40.08 258.018 41.6375 258.018 43.7143Z" fill="#548793"/>
<path d="M260.648 9.27175C263.047 5.29105 264.339 5.06088 266.768 3.7396C269.197 2.41833 271.349 2.03469 274.085 2.43516C276.822 2.83563 278.266 3.46639 280.218 4.45079C282.17 5.43519 284.014 7.47516 285.751 10.5706C285.751 10.5706 287.773 19.082 287.372 21.8181C286.972 24.5543 285.453 28.8328 284.822 30.2776C284.191 31.7225 283.514 35.3962 280.808 37.6551C278.102 39.914 276.026 40.7282 273.29 40.3276C270.554 39.9271 269.74 37.8516 268.725 37.1442C267.711 36.4367 264.514 33.4536 263.116 30.5939C261.718 27.7342 259.306 24.1671 258.539 19.8626C257.771 15.5581 258.249 13.2524 260.648 9.27175Z" fill="#EAC8B0"/>
<path d="M255.422 92.5187L252.826 88.8844L258.537 84.2116L300.073 81.6156V85.25L291.766 89.9227L255.422 92.5187Z" fill="#D3D3D3"/>
<path d="M291.247 76.4237L288.651 75.9045L286.574 77.462L288.651 82.1348L293.843 80.5772L300.592 76.1641L307.342 71.7509C307.342 71.7509 310.976 70.1933 312.015 68.6357C313.053 67.0781 312.015 63.963 312.015 63.963C312.015 63.963 311.495 59.2902 310.976 57.7326C310.457 56.175 305.784 45.7911 305.784 45.7911C305.784 45.7911 305.784 47.8679 303.188 48.9063C300.592 49.9447 300.592 49.9447 298.516 49.9447H295.92L304.746 65.5205L301.631 67.0781L291.247 76.4237Z" fill="#EAC8B0"/>
<path d="M262.691 53.0598C261.133 53.0598 260.095 51.5023 260.095 51.5023L262.691 63.963H271.517L269.96 59.8094L267.883 52.5407L266.845 53.0598C264.768 54.0982 264.249 53.0598 262.691 53.0598Z" fill="#EAC8B0"/>
<path d="M283.978 60.8478L244 63.4438L252.307 88.8844L290.728 85.7692L283.978 60.8478Z" fill="#D3D3D3"/>
<path d="M256.372 22.05C258.121 23.85 260.308 24.75 260.308 24.75C260.308 24.75 259.87 22.5 260.308 20.7C260.745 18.9 261.619 18 262.494 17.55C263.368 17.1 265.117 15.75 267.741 14.85C270.364 13.95 272.987 13.95 276.048 13.95C279.109 13.95 279.983 17.1 279.983 17.1L283.044 23.85V18.45C283.044 18.45 283.481 16.2 284.356 16.2C285.23 16.2 286.105 16.65 286.979 17.1L286.979 17.1C287.854 17.55 287.854 20.2498 287.854 21.1499V21.15C287.854 22.05 286.542 27 286.542 27L288.728 23.85C288.728 23.85 290.477 19.35 290.914 16.2C291.351 13.05 290.04 9.90001 288.728 7.19998C287.416 4.49994 286.542 3.59995 283.044 2.24995C279.546 0.899949 279.109 -3.98978e-06 276.048 0C272.987 3.9898e-06 269.052 0.899968 265.992 2.24997C262.931 3.59997 259.87 4.95001 257.247 7.65001C254.623 10.35 252 13.95 252 16.2C252 18.45 254.623 20.25 256.372 22.05Z" fill="#614937"/>
<path d="M68.4859 394.536V390.307V385.286L76.3856 386.607L80.5987 395.857L68.4859 394.536Z" fill="#F9CB88"/>
<path d="M126.154 355.157L112.461 383.964L117.727 389.514L129.05 360.707L130.103 356.743L133 349.343L126.154 343V355.157Z" fill="#F9CB88"/>
<path d="M52.1599 460.343L55.3197 445.543L61.9028 445.279L60.3229 452.414L57.953 460.079L54.5298 475.936L54.2665 481.75L52.6865 487.036L49.79 490.471L49 491V489.679L50.8433 487.3L50.3166 482.807V487.3L49.79 487.829L49 487.3V483.6V480.429L50.8433 477.786V473.557L52.1599 460.343Z" fill="#F9CB88"/>
<path d="M80.309 366.894C80.0399 365.821 76.5415 361.264 76.5415 361.264L75.7342 359.119C75.7342 359.119 73.8504 358.851 73.3123 359.119C72.7741 359.387 69.0066 362.068 68.1993 362.872C67.3921 363.677 65.7774 366.089 65.2392 367.43C64.701 368.77 65.2392 377.349 65.2392 378.153C65.2392 378.957 69.814 385.391 70.6213 385.928C71.4286 386.464 73.3123 387 73.3123 387C73.3123 387 78.4252 386.881 79.5017 386.613C80.5781 386.345 81.939 386.345 82.2081 383.664C82.4772 380.983 79.8007 381.012 80.608 381.012C81.4153 381.012 82.4917 381.012 82.4917 380.179C82.4917 379.345 81.4153 379.374 81.4153 379.374L82.1927 378.57L81.4153 376.962C81.4153 376.962 83 376.545 83 376.009C83 375.472 82.1927 374.936 82.1927 374.936L79.5017 372.791V371.451C79.5017 371.451 80.5781 367.966 80.309 366.894Z" fill="#F9CB88"/>
<path d="M72.6683 354.824C75.1678 356.013 76.442 357.503 77.4078 360.102C78.7178 363.627 77.7054 366.346 75.828 369.603C74.4457 372 71.7883 372.021 70.8252 374.617C70.4597 375.602 70.2895 376.205 70.2986 377.256C70.3139 379.017 71.8784 381.478 71.8784 381.478C71.8784 381.478 76.0616 389.878 72.6683 390.187C72.3611 390.215 72.1856 390.158 71.8784 390.187C70.2597 390.339 69.8974 391.809 68.4555 392.562C63.9723 394.903 59.9526 396.115 55.5537 393.618C54.156 392.825 53.4878 392.158 52.394 390.979C46.5122 384.639 49.4591 376.953 52.394 368.811C53.7074 365.167 54.5246 362.96 57.1335 360.102C59.5784 357.423 61.2849 355.817 64.7693 354.824C67.7365 353.979 69.8816 353.498 72.6683 354.824Z" fill="black"/>
<path d="M62 582.245L64.3924 578H70.7722L73.6962 584.898H68.1139L62 582.245Z" fill="#F9CB88"/>
<path d="M107.19 588.612L105.329 578H111.709L116.494 584.898L125 588.612L122.076 591L107.19 588.612Z" fill="#F9CB88"/>
<path d="M60 585.59L62 582L66.6489 583.538L70.5 583L74.0957 585.59H79.6809L85 586.872V592H76.7553H64.7872L61.5957 589.692L60 585.59Z" fill="#C04242"/>
<path d="M60 585.59L62 582L66.6489 583.538L70.5 583L74.0957 585.59H79.6809L85 586.872V592H76.7553H64.7872L61.5957 589.692L60 585.59Z" fill="#C04242"/>
<path d="M60 585.59L62 582L66.6489 583.538L70.5 583L74.0957 585.59H79.6809L85 586.872V592H76.7553H64.7872L61.5957 589.692L60 585.59Z" fill="#C04242"/>
<path d="M57.4429 457.061C59.1379 452.848 64.6819 447.931 67.242 446H86.0457L88.1644 453.638L94.2557 483.925L100.612 510.788L108.027 543.182L112 568.729V579H100.612L86.0457 523.43L75.1872 503.941L76.5114 507.628V527.117L73.5982 562.408L71.4795 577.42C68.6545 577.859 62.6868 578.473 61.4155 577.42C60.1443 576.366 59.6499 554.156 59.5616 543.182V510.788L54 483.925V467.859C54.4414 466.016 55.7479 461.275 57.4429 457.061Z" fill="#2C474D"/>
<path d="M105 587.949L106.532 584L111.383 585.692H116.489L118.532 587.949H123.894L129 589.359V595H121.085H109.596L106.532 592.462L105 587.949Z" fill="#C04242"/>
<path d="M105 587.949L106.532 584L111.383 585.692H116.489L118.532 587.949H123.894L129 589.359V595H121.085H109.596L106.532 592.462L105 587.949Z" fill="#C04242"/>
<path d="M105 587.949L106.532 584L111.383 585.692H116.489L118.532 587.949H123.894L129 589.359V595H121.085H109.596L106.532 592.462L105 587.949Z" fill="#C04242"/>
<path d="M57.9593 420.409C61.3593 410.134 67.9224 394.553 67.9224 394.553L80.5073 395.609L81.5 394.553L90 397.5L111.5 383L119 390C119 390 115.605 393.316 113.5 395C108.5 399 105.524 400.738 100 403.5C97 405 93.0537 405.931 92.5679 409.591C92.4866 410.204 92.5679 409.064 92.5679 411.174V419.353C92.5679 419.353 92.3258 426.845 91.257 431.489C89.8887 437.435 87.8353 442.131 86 446H67.398L63.9896 433.6V442.834V445.472H54.0265C54.0265 445.472 53.9668 442.416 54.0265 440.46C54.1559 436.217 54.2088 433.796 55.0753 429.643C55.847 425.943 56.7726 423.995 57.9593 420.409Z" fill="#D5FFFC"/>
<defs>
<filter id="filter0_d" x="295.493" y="569.5" width="36.0348" height="40" filterUnits="userSpaceOnUse" color-interpolation-filters="sRGB">
<feFlood flood-opacity="0" result="BackgroundImageFix"/>
<feColorMatrix in="SourceAlpha" type="matrix" values="0 0 0 0 0 0 0 0 0 0 0 0 0 0 0 0 0 0 127 0"/>
<feOffset dx="6" dy="6"/>
<feGaussianBlur stdDeviation="6"/>
<feColorMatrix type="matrix" values="0 0 0 0 0.970833 0 0 0 0 0.938472 0 0 0 0 0.938472 0 0 0 0.25 0"/>
<feBlend mode="normal" in2="BackgroundImageFix" result="effect1_dropShadow"/>
<feBlend mode="normal" in="SourceGraphic" in2="effect1_dropShadow" result="shape"/>
</filter>
<filter id="filter1_d" x="350.491" y="569.5" width="37.0421" height="39" filterUnits="userSpaceOnUse" color-interpolation-filters="sRGB">
<feFlood flood-opacity="0" result="BackgroundImageFix"/>
<feColorMatrix in="SourceAlpha" type="matrix" values="0 0 0 0 0 0 0 0 0 0 0 0 0 0 0 0 0 0 127 0"/>
<feOffset dx="6" dy="6"/>
<feGaussianBlur stdDeviation="6"/>
<feColorMatrix type="matrix" values="0 0 0 0 0.970833 0 0 0 0 0.938472 0 0 0 0 0.938472 0 0 0 0.25 0"/>
<feBlend mode="normal" in2="BackgroundImageFix" result="effect1_dropShadow"/>
<feBlend mode="normal" in="SourceGraphic" in2="effect1_dropShadow" result="shape"/>
</filter>
</defs>
</svg>
