<?xml version="1.0" encoding="utf-8"?>
<!-- Generator: Adobe Illustrator 15.0.0, SVG Export Plug-In . SVG Version: 6.00 Build 0)  -->
<!DOCTYPE svg PUBLIC "-//W3C//DTD SVG 1.1//EN" "http://www.w3.org/Graphics/SVG/1.1/DTD/svg11.dtd">
<svg version="1.1" id="Layer_1" xmlns="http://www.w3.org/2000/svg" xmlns:xlink="http://www.w3.org/1999/xlink" x="0px" y="0px"
	 width="850.39px" height="850.39px" viewBox="0 0 850.39 850.39" enable-background="new 0 0 850.39 850.39" xml:space="preserve">
<path fill="#FDFEFF" d="M708.905,443.799c0.187-5.933,0.373-11.866,0.559-17.799c-0.186-5.933-0.373-11.866-0.559-17.798
	c-0.559-5.91-1.117-11.819-1.676-17.729c-0.929-5.863-1.857-11.726-2.786-17.588c-1.295-5.793-2.59-11.586-3.885-17.379
	c-1.656-5.7-3.312-11.4-4.968-17.101c-2.011-5.585-4.021-11.17-6.032-16.755c-2.357-5.448-4.714-10.896-7.072-16.343
	c-2.695-5.289-5.39-10.578-8.084-15.867c-3.022-5.109-6.043-10.219-9.065-15.328c-3.336-4.909-6.673-9.819-10.009-14.728
	c-3.638-4.69-7.276-9.381-10.915-14.071c-3.925-4.453-7.851-8.905-11.776-13.358c-4.197-4.197-8.395-8.395-12.592-12.592
	c-4.453-3.926-8.905-7.851-13.358-11.777c-4.69-3.638-9.38-7.276-14.071-10.914c-4.91-3.336-9.819-6.673-14.729-10.01
	c-5.109-3.021-10.218-6.043-15.328-9.065c-5.289-2.695-10.578-5.39-15.867-8.084c-5.448-2.358-10.896-4.715-16.343-7.073
	c-5.585-2.011-11.17-4.021-16.755-6.032c-5.7-1.656-11.4-3.312-17.101-4.968c-5.793-1.295-11.586-2.59-17.379-3.885
	c-5.863-0.928-11.726-1.857-17.588-2.786c-5.91-0.559-11.819-1.117-17.729-1.676c-5.933-0.187-11.866-0.373-17.799-0.559
	c-5.933,0.187-11.866,0.373-17.799,0.559c-5.91,0.559-11.819,1.117-17.729,1.676c-5.863,0.929-11.726,1.857-17.588,2.786
	c-5.793,1.295-11.586,2.59-17.379,3.885c-5.7,1.656-11.4,3.312-17.101,4.968c-5.585,2.01-11.17,4.021-16.755,6.032
	c-5.448,2.357-10.895,4.715-16.343,7.072c-5.289,2.695-10.578,5.39-15.867,8.084c-5.109,3.022-10.219,6.043-15.328,9.065
	c-4.909,3.336-9.819,6.673-14.729,10.009c-4.69,3.638-9.38,7.276-14.071,10.914c-4.453,3.926-8.905,7.851-13.357,11.776
	c-4.197,4.197-8.395,8.395-12.592,12.592c-3.925,4.452-7.851,8.905-11.776,13.357c-3.638,4.69-7.276,9.381-10.914,14.071
	c-3.336,4.91-6.673,9.819-10.01,14.729c-3.021,5.109-6.043,10.218-9.065,15.328c-2.695,5.289-5.39,10.578-8.085,15.867
	c-2.357,5.448-4.715,10.896-7.072,16.343c-2.011,5.585-4.021,11.17-6.032,16.755c-1.656,5.7-3.312,11.4-4.968,17.101
	c-1.295,5.793-2.59,11.586-3.885,17.379c-0.929,5.863-1.857,11.726-2.786,17.588c-0.559,5.91-1.117,11.819-1.676,17.729
	c-0.187,5.933-0.373,11.866-0.559,17.799c0.187,5.933,0.373,11.866,0.559,17.799c0.559,5.909,1.117,11.819,1.676,17.729
	c0.929,5.863,1.857,11.726,2.786,17.588c1.295,5.793,2.59,11.586,3.885,17.379c1.656,5.7,3.312,11.4,4.968,17.101
	c2.011,5.585,4.021,11.17,6.032,16.755c2.357,5.448,4.715,10.896,7.072,16.343c2.695,5.289,5.39,10.578,8.084,15.867
	c3.022,5.109,6.043,10.218,9.065,15.328c3.336,4.91,6.673,9.819,10.009,14.729c3.638,4.69,7.276,9.38,10.914,14.071
	c3.926,4.453,7.851,8.905,11.777,13.358c4.197,4.197,8.395,8.395,12.592,12.592c4.453,3.925,8.905,7.851,13.357,11.776
	c4.69,3.638,9.381,7.276,14.071,10.915c4.909,3.336,9.819,6.673,14.728,10.009c5.109,3.021,10.219,6.043,15.328,9.065
	c5.289,2.695,10.578,5.39,15.867,8.084c5.448,2.357,10.895,4.715,16.343,7.072c5.585,2.011,11.17,4.021,16.755,6.032
	c5.7,1.656,11.4,3.312,17.101,4.968c5.793,1.295,11.586,2.59,17.379,3.884c5.863,0.929,11.726,1.857,17.588,2.786
	c5.91,0.559,11.819,1.117,17.729,1.676c5.933,0.187,11.866,0.373,17.799,0.559c5.933-0.186,11.866-0.373,17.799-0.559
	c5.91-0.559,11.819-1.117,17.729-1.676c5.863-0.929,11.726-1.857,17.588-2.786c5.793-1.294,11.586-2.589,17.379-3.884
	c5.7-1.656,11.4-3.312,17.101-4.968c5.585-2.011,11.17-4.021,16.755-6.032c5.448-2.357,10.896-4.715,16.343-7.072
	c5.289-2.695,10.578-5.39,15.867-8.084c5.109-3.021,10.219-6.043,15.328-9.065c4.91-3.336,9.819-6.673,14.729-10.009
	c4.69-3.638,9.38-7.276,14.071-10.915c4.453-3.925,8.905-7.851,13.358-11.776c4.197-4.197,8.395-8.395,12.592-12.592
	c3.925-4.453,7.851-8.905,11.776-13.358c3.638-4.69,7.276-9.38,10.915-14.071c3.336-4.909,6.673-9.819,10.009-14.729
	c3.022-5.109,6.043-10.218,9.065-15.328c2.695-5.289,5.39-10.578,8.084-15.867c2.357-5.448,4.715-10.896,7.072-16.343
	c2.011-5.585,4.021-11.17,6.032-16.755c1.656-5.7,3.312-11.4,4.968-17.101c1.295-5.793,2.59-11.586,3.884-17.378
	c0.929-5.863,1.857-11.726,2.786-17.589C707.788,455.618,708.347,449.708,708.905,443.799z"/>
<path fill="#626363" d="M387.627,338.012c12.791,12.791,25.582,25.582,38.373,38.373c3.464-3.464,6.929-6.929,10.393-10.393
	c-12.791-12.791-25.582-25.582-38.373-38.373C394.555,331.083,391.091,334.547,387.627,338.012z"/>
<path fill="#B0E1ED" d="M426,163.918c-5.485,0.173-10.971,0.345-16.457,0.517c-5.464,0.516-10.927,1.033-16.391,1.549
	c-4.51,0.714-9.02,1.428-13.529,2.143c0,41.824,0,83.648,0,125.472c0.18-0.122,0.36-0.244,0.54-0.366
	c1.542-0.912,3.084-1.824,4.626-2.736c1.596-0.813,3.192-1.626,4.788-2.44c1.644-0.711,3.288-1.423,4.932-2.134
	c1.685-0.606,3.371-1.213,5.056-1.82c1.72-0.5,3.44-1,5.161-1.499c1.748-0.391,3.497-0.782,5.245-1.172
	c1.769-0.28,3.539-0.561,5.308-0.841c1.784-0.168,3.567-0.337,5.35-0.506c1.791-0.056,3.581-0.112,5.372-0.168
	c1.791,0.056,3.581,0.112,5.371,0.168c1.784,0.169,3.567,0.337,5.351,0.506c1.769,0.28,3.538,0.561,5.308,0.841
	c1.748,0.391,3.497,0.781,5.245,1.172c1.72,0.5,3.44,1,5.161,1.499c1.686,0.607,3.371,1.214,5.056,1.82
	c1.644,0.711,3.288,1.423,4.932,2.134c1.596,0.813,3.192,1.626,4.788,2.44c1.542,0.912,3.084,1.824,4.626,2.735
	c1.481,1.007,2.963,2.014,4.444,3.021c1.416,1.098,2.831,2.196,4.247,3.293c1.344,1.185,2.687,2.37,4.031,3.554
	c1.267,1.267,2.534,2.533,3.8,3.8c1.185,1.344,2.369,2.688,3.554,4.031c1.098,1.416,2.196,2.831,3.294,4.246
	c1.007,1.481,2.014,2.963,3.021,4.445c0.912,1.542,1.824,3.083,2.736,4.625c0.813,1.596,1.626,3.192,2.439,4.789
	c0.711,1.644,1.423,3.288,2.134,4.932c0.607,1.686,1.214,3.371,1.82,5.057c0.5,1.72,1,3.44,1.5,5.161
	c0.391,1.748,0.781,3.496,1.172,5.244c0.28,1.77,0.56,3.539,0.84,5.308c0.169,1.783,0.337,3.567,0.506,5.35
	c0.056,1.791,0.113,3.581,0.169,5.372c-0.056,1.79-0.113,3.581-0.169,5.371c-0.168,1.783-0.337,3.566-0.506,5.35
	c-0.28,1.769-0.56,3.539-0.84,5.308c-0.391,1.748-0.782,3.497-1.172,5.245c-0.5,1.72-1,3.44-1.5,5.161
	c-0.606,1.686-1.213,3.371-1.82,5.056c-0.711,1.644-1.423,3.288-2.134,4.932c-0.813,1.596-1.626,3.192-2.439,4.788
	c-0.912,1.542-1.824,3.084-2.736,4.626c-1.007,1.481-2.014,2.963-3.021,4.445c-1.098,1.415-2.196,2.831-3.294,4.246
	c-1.185,1.344-2.369,2.688-3.554,4.031c-1.267,1.267-2.533,2.533-3.8,3.8c-1.344,1.185-2.688,2.369-4.031,3.554
	c-0.535,0.415-1.069,0.829-1.604,1.244c11.127,0,22.255,0,33.383,0c0.736-0.949,1.472-1.898,2.208-2.847
	c0.779-1.147,1.559-2.293,2.338-3.44c1.718,2.096,3.436,4.191,5.153,6.287c55.289,0,110.579,0,165.868,0
	c0.069-2.206,0.139-4.411,0.208-6.617c-0.172-5.485-0.345-10.971-0.518-16.456c-0.516-5.464-1.033-10.928-1.549-16.392
	c-0.858-5.42-1.717-10.841-2.575-16.262c-1.197-5.356-2.395-10.712-3.592-16.068c-1.531-5.27-3.062-10.54-4.593-15.811
	c-1.859-5.164-3.718-10.327-5.577-15.491c-2.18-5.037-4.359-10.073-6.539-15.11c-2.491-4.89-4.983-9.78-7.474-14.669
	c-2.794-4.724-5.587-9.448-8.381-14.172c-3.085-4.539-6.169-9.078-9.254-13.617c-3.364-4.336-6.727-8.673-10.091-13.01
	c-3.629-4.117-7.259-8.233-10.888-12.35c-3.881-3.88-7.761-7.761-11.642-11.642c-4.117-3.629-8.233-7.259-12.35-10.888
	c-4.336-3.363-8.673-6.727-13.009-10.091c-4.539-3.085-9.079-6.17-13.618-9.254c-4.724-2.794-9.447-5.587-14.171-8.381
	c-4.89-2.492-9.78-4.983-14.67-7.475c-5.037-2.179-10.073-4.359-15.11-6.539c-5.164-1.859-10.327-3.718-15.491-5.577
	c-5.271-1.531-10.541-3.062-15.811-4.593c-5.356-1.197-10.712-2.395-16.068-3.592c-5.42-0.858-10.841-1.717-16.261-2.575
	c-5.464-0.517-10.928-1.033-16.392-1.55C436.971,164.263,431.486,164.091,426,163.918z"/>
<path fill="#DA7979" d="M376.891,168.56c-5.356,1.197-10.712,2.394-16.068,3.592c-5.271,1.531-10.541,3.062-15.811,4.594
	c-5.164,1.859-10.328,3.718-15.491,5.577c-5.037,2.18-10.073,4.359-15.11,6.539c-4.89,2.491-9.78,4.983-14.67,7.475
	c-4.724,2.794-9.448,5.587-14.171,8.381c-4.539,3.085-9.078,6.169-13.618,9.254c-4.336,3.364-8.673,6.728-13.009,10.091
	c-4.117,3.629-8.233,7.258-12.35,10.888c-3.88,3.881-7.761,7.762-11.642,11.642c-3.629,4.117-7.259,8.233-10.888,12.35
	c-3.364,4.336-6.727,8.673-10.091,13.009c-3.085,4.54-6.17,9.079-9.254,13.618c-2.794,4.724-5.588,9.448-8.381,14.171
	c-2.491,4.89-4.983,9.78-7.475,14.67c-2.18,5.037-4.359,10.074-6.539,15.11c-1.859,5.164-3.718,10.327-5.577,15.491
	c-1.531,5.271-3.062,10.541-4.593,15.811c-1.197,5.356-2.395,10.712-3.592,16.068c-0.858,5.42-1.717,10.841-2.575,16.262
	c-0.517,5.463-1.033,10.927-1.55,16.391c-0.172,5.485-0.345,10.971-0.517,16.457c0.069,2.206,0.139,4.411,0.208,6.617
	c0.103,3.28,0.206,6.56,0.309,9.839c0.517,5.464,1.033,10.927,1.549,16.391c0.259,1.633,0.517,3.267,0.776,4.9
	c45.906,0,91.811,0,137.717,0c8.505-10.377,17.011-20.753,25.516-31.13c1.718-2.096,3.436-4.191,5.153-6.287
	c0.779,1.147,1.559,2.294,2.338,3.44c0.736,0.949,1.472,1.898,2.208,2.847c0.668,0.862,1.336,1.723,2.005,2.584
	c1.515,1.719,3.03,3.437,4.545,5.156c1.62,1.62,3.24,3.24,4.86,4.86c1.718,1.515,3.437,3.03,5.156,4.545
	c1.81,1.404,3.621,2.809,5.431,4.213c1.895,1.288,3.79,2.575,5.685,3.863c1.972,1.166,3.944,2.333,5.916,3.499
	c1.576,0.803,3.152,1.606,4.729,2.41c0.535,0,1.069,0,1.604,0c0-8.809,0-17.618,0-26.427c-1.302-0.884-2.603-1.769-3.905-2.654
	c-0.881-0.683-1.762-1.366-2.643-2.05c-0.534-0.415-1.069-0.829-1.604-1.244c-1.344-1.185-2.687-2.369-4.031-3.554
	c-1.267-1.267-2.534-2.534-3.8-3.8c-1.185-1.344-2.369-2.688-3.554-4.031c-1.098-1.415-2.196-2.831-3.294-4.246
	c-1.007-1.481-2.014-2.963-3.021-4.445c-0.912-1.542-1.824-3.083-2.735-4.625c-0.813-1.596-1.627-3.192-2.44-4.788
	c-0.711-1.644-1.423-3.288-2.134-4.932c-0.607-1.686-1.214-3.371-1.82-5.056c-0.5-1.72-1-3.44-1.5-5.161
	c-0.391-1.749-0.781-3.497-1.172-5.245c-0.28-1.77-0.56-3.539-0.84-5.308c-0.169-1.783-0.337-3.566-0.506-5.35
	c-0.056-1.791-0.113-3.581-0.169-5.371c0.056-1.791,0.113-3.581,0.169-5.372c0.168-1.783,0.337-3.567,0.506-5.35
	c0.28-1.769,0.56-3.539,0.84-5.308c0.391-1.749,0.782-3.497,1.172-5.245c0.5-1.72,1-3.44,1.5-5.161
	c0.606-1.686,1.213-3.371,1.82-5.057c0.711-1.644,1.423-3.288,2.134-4.932c0.813-1.596,1.626-3.192,2.439-4.789
	c0.912-1.542,1.824-3.083,2.736-4.625c1.007-1.481,2.014-2.963,3.021-4.445c1.098-1.416,2.196-2.831,3.294-4.246
	c1.185-1.344,2.369-2.688,3.554-4.031c1.267-1.267,2.533-2.533,3.8-3.8c1.344-1.185,2.688-2.369,4.031-3.554
	c1.416-1.098,2.831-2.196,4.247-3.293c1.301-0.885,2.603-1.77,3.905-2.654c0-41.824,0-83.648,0-125.472
	C378.713,168.272,377.802,168.416,376.891,168.56z"/>
<path fill="#AED8A2" d="M687.564,442.456c0.104-3.28,0.207-6.56,0.31-9.839c-55.289,0-110.579,0-165.868,0
	c8.505,10.377,17.011,20.753,25.516,31.13c30.897,37.695,61.794,75.39,92.692,113.085c2.356-3.467,4.712-6.935,7.069-10.401
	c2.793-4.724,5.587-9.448,8.381-14.172c2.492-4.89,4.983-9.78,7.475-14.67c2.18-5.037,4.359-10.073,6.539-15.11
	c1.859-5.164,3.718-10.327,5.577-15.491c1.531-5.27,3.062-10.541,4.593-15.811c1.197-5.356,2.394-10.712,3.591-16.068
	c0.6-3.788,1.2-7.575,1.8-11.362c0.259-1.633,0.517-3.267,0.776-4.899C686.532,453.384,687.048,447.92,687.564,442.456z"/>
<path fill="#AED8A2" d="M393.152,686.015c5.464,0.517,10.928,1.033,16.391,1.549c5.485,0.173,10.971,0.345,16.457,0.518
	c5.485-0.173,10.971-0.345,16.456-0.518c5.464-0.516,10.928-1.033,16.392-1.549c5.42-0.858,10.841-1.717,16.262-2.576
	c5.355-1.197,10.712-2.394,16.067-3.591c5.271-1.531,10.541-3.063,15.811-4.593c5.164-1.859,10.327-3.718,15.491-5.577
	c5.037-2.18,10.074-4.359,15.11-6.539c4.89-2.491,9.78-4.983,14.67-7.475c4.724-2.793,9.448-5.587,14.172-8.381
	c4.539-3.085,9.078-6.17,13.617-9.254c4.336-3.364,8.673-6.728,13.009-10.091c4.117-3.629,8.233-7.259,12.35-10.888
	c3.881-3.88,7.762-7.761,11.642-11.642c2.984-3.384,5.967-6.769,8.951-10.153c-63.275,0-126.55,0-189.825,0
	c0-13.429,0-26.859,0-40.288c-6.784,0-13.567,0-20.351,0c0,13.429,0,26.859,0,40.288c-12.067,0-24.134,0-36.201,0
	c0,29.539,0,59.078,0,88.618C384.133,684.587,388.643,685.301,393.152,686.015z"/>
<path fill="#AED8A2" d="M510.302,435.201c0.668-0.861,1.336-1.723,2.005-2.584c-11.128,0-22.255,0-33.383,0
	c-0.881,0.683-1.762,1.367-2.643,2.05c-1.481,1.007-2.963,2.014-4.444,3.021c-1.542,0.912-3.084,1.824-4.626,2.736
	c-1.596,0.813-3.192,1.626-4.788,2.439c-1.644,0.712-3.288,1.423-4.932,2.135c-1.685,0.606-3.371,1.213-5.056,1.82
	c-1.72,0.5-3.44,1-5.161,1.499c-1.748,0.391-3.496,0.782-5.245,1.172c-1.769,0.28-3.539,0.561-5.308,0.841
	c-1.783,0.168-3.567,0.337-5.35,0.506c-1.791,0.056-3.581,0.112-5.372,0.168c-1.791-0.056-3.581-0.112-5.371-0.168
	c-1.784-0.169-3.567-0.337-5.35-0.506c-1.77-0.28-3.539-0.561-5.308-0.841c-1.748-0.391-3.496-0.781-5.245-1.172
	c-1.72-0.5-3.44-1-5.161-1.499c-1.685-0.607-3.371-1.214-5.056-1.82c-1.644-0.711-3.288-1.423-4.932-2.134
	c-1.596-0.813-3.192-1.626-4.788-2.44c-1.542-0.912-3.084-1.824-4.625-2.735c-0.18-0.123-0.36-0.245-0.54-0.367
	c0,8.809,0,17.618,0,26.427c0,0.267,0,0.534,0,0.801c2.033,0.88,4.066,1.76,6.1,2.64c2.155,0.776,4.311,1.552,6.467,2.329
	c2.2,0.639,4.4,1.278,6.601,1.917c2.236,0.5,4.472,1,6.708,1.499c2.263,0.359,4.526,0.717,6.789,1.076
	c1.179,0.111,2.358,0.223,3.538,0.334c0,15.946,0,31.892,0,47.837c6.784,0,13.567,0,20.351,0c0-15.946,0-31.892,0-47.837
	c1.179-0.111,2.358-0.223,3.538-0.334c2.263-0.358,4.526-0.717,6.789-1.075c2.236-0.5,4.472-1,6.708-1.499
	c2.2-0.639,4.4-1.278,6.601-1.918c2.155-0.776,4.311-1.552,6.467-2.328c2.103-0.91,4.206-1.82,6.308-2.729
	c0.465-0.237,0.93-0.474,1.396-0.711c1.576-0.803,3.152-1.606,4.729-2.41c1.972-1.167,3.944-2.333,5.917-3.499
	c1.895-1.288,3.79-2.576,5.685-3.863c1.811-1.404,3.621-2.809,5.431-4.213c1.718-1.515,3.437-3.03,5.156-4.545
	c1.62-1.62,3.24-3.24,4.86-4.86C507.272,438.638,508.787,436.919,510.302,435.201z"/>
<path fill="#EBDE9F" d="M168.56,475.109c1.197,5.356,2.394,10.712,3.592,16.068c1.531,5.271,3.062,10.541,4.594,15.811
	c1.859,5.164,3.718,10.328,5.577,15.491c2.18,5.037,4.359,10.074,6.539,15.11c2.492,4.89,4.983,9.78,7.475,14.67
	c2.794,4.724,5.587,9.448,8.381,14.171c2.356,3.467,4.713,6.935,7.069,10.402c30.897-37.695,61.794-75.39,92.692-113.085
	c-45.906,0-91.811,0-137.717,0C167.361,467.534,167.96,471.322,168.56,475.109z"/>
<path fill="#EBDE9F" d="M226,595.254c2.984,3.384,5.967,6.769,8.951,10.153c3.881,3.881,7.762,7.761,11.642,11.642
	c4.117,3.629,8.233,7.259,12.35,10.888c4.337,3.364,8.673,6.728,13.01,10.091c4.539,3.085,9.078,6.17,13.617,9.255
	c4.724,2.793,9.448,5.587,14.171,8.381c4.89,2.491,9.78,4.983,14.67,7.475c5.037,2.18,10.074,4.359,15.11,6.539
	c5.164,1.859,10.328,3.718,15.491,5.577c5.27,1.531,10.541,3.063,15.811,4.594c5.356,1.197,10.712,2.394,16.068,3.591
	c0.911,0.145,1.822,0.289,2.733,0.433c0-29.54,0-59.079,0-88.618C328.416,595.255,277.208,595.254,226,595.254z"/>
<path fill="#EBDE9F" d="M379.416,464.458c0.069,0.03,0.139,0.06,0.208,0.09c0-0.267,0-0.534,0-0.801c-0.535,0-1.069,0-1.604,0
	C378.485,463.984,378.95,464.221,379.416,464.458z"/>
<path fill="#626363" d="M453.98,327.619c-12.791,12.791-25.582,25.582-38.373,38.373c3.464,3.464,6.928,6.928,10.393,10.393
	c12.791-12.791,25.582-25.582,38.373-38.373c5.922-5.922,11.843-11.843,17.765-17.765c3.948-3.948,7.896-7.896,11.843-11.843
	c3.729-3.729,7.457-7.457,11.186-11.186c-3.464-3.464-6.929-6.928-10.393-10.393c-3.729,3.729-7.457,7.457-11.185,11.185
	c-3.948,3.948-7.896,7.896-11.843,11.843C465.824,315.776,459.902,321.697,453.98,327.619z"/>
</svg>
