<?xml version="1.0" encoding="UTF-8"?>
<svg xmlns="http://www.w3.org/2000/svg" xmlns:xlink="http://www.w3.org/1999/xlink" width="100pt" height="100pt" viewBox="0 0 100 100" version="1.1">
<g id="surface1">
<path style=" stroke:none;fill-rule:nonzero;fill:rgb(0%,0%,0%);fill-opacity:1;" d="M 93.003906 14.308594 L 67.964844 14.308594 L 67.964844 10.734375 C 67.964844 4.804688 63.160156 0 57.234375 0 L 42.925781 0 C 37 0 32.195312 4.804688 32.195312 10.734375 L 32.195312 14.308594 L 7.15625 14.308594 C 5.175781 14.308594 3.578125 15.910156 3.578125 17.886719 C 3.578125 19.863281 5.179688 21.460938 7.15625 21.460938 L 11.042969 21.460938 L 17.886719 96.90625 C 18.054688 98.753906 19.605469 100.167969 21.460938 100.160156 L 78.699219 100.160156 C 80.554688 100.167969 82.105469 98.753906 82.277344 96.90625 L 89.117188 21.460938 L 93.003906 21.460938 C 94.984375 21.460938 96.582031 19.859375 96.582031 17.886719 C 96.582031 15.910156 94.980469 14.308594 93.003906 14.308594 Z M 39.347656 10.734375 C 39.347656 8.753906 40.949219 7.15625 42.925781 7.15625 L 57.234375 7.15625 C 59.210938 7.15625 60.8125 8.753906 60.8125 10.734375 L 60.8125 14.308594 L 39.347656 14.308594 Z M 75.429688 93.003906 L 24.730469 93.003906 L 18.246094 21.460938 L 81.933594 21.460938 Z M 75.429688 93.003906 "/>
<path style=" stroke:none;fill-rule:nonzero;fill:rgb(0%,0%,0%);fill-opacity:1;" d="M 39.351562 82.035156 C 39.351562 82.03125 39.351562 82.023438 39.347656 82.023438 L 35.773438 31.941406 C 35.632812 29.964844 33.917969 28.476562 31.941406 28.617188 C 29.964844 28.757812 28.476562 30.472656 28.617188 32.449219 L 32.195312 82.527344 C 32.328125 84.402344 33.890625 85.855469 35.773438 85.851562 L 36.03125 85.851562 C 38 85.714844 39.488281 84.007812 39.351562 82.035156 Z M 39.351562 82.035156 "/>
<path style=" stroke:none;fill-rule:nonzero;fill:rgb(0%,0%,0%);fill-opacity:1;" d="M 50.082031 28.617188 C 48.105469 28.617188 46.503906 30.21875 46.503906 32.195312 L 46.503906 82.277344 C 46.503906 84.25 48.105469 85.851562 50.082031 85.851562 C 52.054688 85.851562 53.65625 84.25 53.65625 82.277344 L 53.65625 32.195312 C 53.65625 30.21875 52.054688 28.617188 50.082031 28.617188 Z M 50.082031 28.617188 "/>
<path style=" stroke:none;fill-rule:nonzero;fill:rgb(0%,0%,0%);fill-opacity:1;" d="M 68.21875 28.617188 C 66.242188 28.476562 64.527344 29.964844 64.386719 31.941406 L 60.8125 82.023438 C 60.664062 83.992188 62.144531 85.707031 64.113281 85.851562 C 64.121094 85.851562 64.128906 85.851562 64.132812 85.851562 L 64.386719 85.851562 C 66.269531 85.855469 67.832031 84.402344 67.964844 82.527344 L 71.542969 32.449219 C 71.683594 30.472656 70.195312 28.757812 68.21875 28.617188 Z M 68.21875 28.617188 "/>
</g>
</svg>

